<svg xmlns="http://www.w3.org/2000/svg" width="495" height="195" viewBox="0 0 495 195" role="img" aria-label="Most used languages">
<defs>
  <linearGradient id="fill" x1="0" y1="0" x2="0" y2="1">
    <stop offset="0" stop-color="#EBBCBA" stop-opacity=".45"/><stop offset="1" stop-color="#EBBCBA" stop-opacity="0"/>
  </linearGradient>
  <linearGradient id="bar" x1="0" y1="0" x2="1" y2="0">
    <stop offset="0" stop-color="#C4A7E7"/><stop offset="1" stop-color="#EBBCBA"/>
  </linearGradient>
</defs>
<style>
  .title{font:700 17px 'Segoe UI', Ubuntu, 'Helvetica Neue', Arial, sans-serif;fill:#EBBCBA}
  .lbl{font:500 13px 'Segoe UI', Ubuntu, 'Helvetica Neue', Arial, sans-serif;fill:#908CAA}
  .val{font:700 14px 'Segoe UI', Ubuntu, 'Helvetica Neue', Arial, sans-serif;fill:#E0DEF4}
  .big{font:800 32px 'Segoe UI', Ubuntu, 'Helvetica Neue', Arial, sans-serif;fill:#E0DEF4}
  .mid{font:700 14px 'Segoe UI', Ubuntu, 'Helvetica Neue', Arial, sans-serif;fill:#EBBCBA}
  .sub{font:400 12px 'Segoe UI', Ubuntu, 'Helvetica Neue', Arial, sans-serif;fill:#908CAA}
  .ax{font:400 11px 'Segoe UI', Ubuntu, 'Helvetica Neue', Arial, sans-serif;fill:#908CAA}
  .pt{font:600 10px 'Segoe UI', Ubuntu, 'Helvetica Neue', Arial, sans-serif;fill:#E0DEF4}
  .in{animation:fade .8s ease both}
  @keyframes fade{from{opacity:0}}
</style>
<rect x=".5" y=".5" width="494" height="194" rx="12" fill="#191724" stroke="#403D52"/>
<text x="25" y="35" class="title">Most Used Languages</text><clipPath id="r"><rect x="25" y="52" width="445" height="12" rx="6"/></clipPath><g clip-path="url(#r)"><rect x="25.00" y="52" width="230.20" height="12" fill="#EBBCBA"/><rect x="254.70" y="52" width="103.71" height="12" fill="#C4A7E7"/><rect x="357.91" y="52" width="102.04" height="12" fill="#9CCFD8"/><rect x="459.44" y="52" width="7.17" height="12" fill="#F6C177"/><rect x="466.11" y="52" width="3.60" height="12" fill="#EA9A97"/><rect x="469.21" y="52" width="0.95" height="12" fill="#31748F"/><rect x="469.66" y="52" width="0.74" height="12" fill="#E0DEF4"/><rect x="469.91" y="52" width="0.59" height="12" fill="#908CAA"/></g><g class="in" style="animation-delay:0.00s"><circle cx="30" cy="92" r="5" fill="#EBBCBA"/><text x="43" y="96" class="val" style="font-weight:600">JavaScript</text><text x="230" y="96" class="lbl" text-anchor="end">51.6%</text></g><g class="in" style="animation-delay:0.08s"><circle cx="30" cy="117" r="5" fill="#C4A7E7"/><text x="43" y="121" class="val" style="font-weight:600">Python</text><text x="230" y="121" class="lbl" text-anchor="end">23.2%</text></g><g class="in" style="animation-delay:0.16s"><circle cx="30" cy="142" r="5" fill="#9CCFD8"/><text x="43" y="146" class="val" style="font-weight:600">TypeScript</text><text x="230" y="146" class="lbl" text-anchor="end">22.8%</text></g><g class="in" style="animation-delay:0.24s"><circle cx="30" cy="167" r="5" fill="#F6C177"/><text x="43" y="171" class="val" style="font-weight:600">CSS</text><text x="230" y="171" class="lbl" text-anchor="end">1.5%</text></g><g class="in" style="animation-delay:0.32s"><circle cx="265" cy="92" r="5" fill="#EA9A97"/><text x="278" y="96" class="val" style="font-weight:600">SCSS</text><text x="465" y="96" class="lbl" text-anchor="end">0.7%</text></g><g class="in" style="animation-delay:0.40s"><circle cx="265" cy="117" r="5" fill="#31748F"/><text x="278" y="121" class="val" style="font-weight:600">HTML</text><text x="465" y="121" class="lbl" text-anchor="end">0.1%</text></g><g class="in" style="animation-delay:0.48s"><circle cx="265" cy="142" r="5" fill="#E0DEF4"/><text x="278" y="146" class="val" style="font-weight:600">Shell</text><text x="465" y="146" class="lbl" text-anchor="end">0.1%</text></g><g class="in" style="animation-delay:0.56s"><circle cx="265" cy="167" r="5" fill="#908CAA"/><text x="278" y="171" class="val" style="font-weight:600">Other</text><text x="465" y="171" class="lbl" text-anchor="end">0.0%</text></g>
</svg>